<?xml version="1.0" encoding="utf-8"?><svg viewBox="0 0 512 512" xmlns="http://www.w3.org/2000/svg" xmlns:xlink="http://www.w3.org/1999/xlink"><style>:root>svg{display:none}:root>svg:target{display:block}</style><svg viewBox="0 0 512 512" id="left-arrow" xmlns="http://www.w3.org/2000/svg"><path d="M352 115.4L331.3 96 160 256l171.3 160 20.7-19.3L201.5 256z"/></svg><svg viewBox="0 0 38 38" id="logo" xmlns="http://www.w3.org/2000/svg"><rect width="38" height="38" rx="8"/><path fill-rule="evenodd" clip-rule="evenodd" d="M19.965 12.436c-.333 0-.656.04-.965.118a9.12 9.12 0 011.996-4.76 8.67 8.67 0 017.637 8.609v6.326a9.165 9.165 0 01-8.53-4.687h3.828v-1.64a3.967 3.967 0 00-3.966-3.966z"/><path fill-rule="evenodd" clip-rule="evenodd" d="M9.256 16.95A9.643 9.643 0 0119.52 7.328a10.105 10.105 0 00-2.598 7.379 2.985 2.985 0 00-1.014 2.245v.665h5.985-4.37c1.423 3.88 5.15 6.65 9.524 6.65.509 0 1.008-.037 1.497-.11v4.1h-6.65v-3.99h-5.986v3.99h-6.65V16.951z"/></svg><svg viewBox="0 0 512 512" id="right-arrow" xmlns="http://www.w3.org/2000/svg"><path d="M160 115.4L180.7 96 352 256 180.7 416 160 396.7 310.5 256z"/></svg></svg>